<mxfile host="app.diagrams.net" agent="Mozilla/5.0 (Windows NT 10.0; Win64; x64) AppleWebKit/537.36 (KHTML, like Gecko) Chrome/134.0.0.0 Safari/537.36" version="26.1.0">
  <diagram name="Page-1" id="104A2jv2Yu7XjjyOtCvO">
    <mxGraphModel dx="1414" dy="1512" grid="1" gridSize="10" guides="1" tooltips="1" connect="1" arrows="1" fold="1" page="0" pageScale="1" pageWidth="827" pageHeight="1169" math="0" shadow="0">
      <root>
        <mxCell id="0" />
        <mxCell id="1" parent="0" />
        <mxCell id="miHSzvLpUOuJc-W2-yxP-28" style="edgeStyle=orthogonalEdgeStyle;rounded=0;orthogonalLoop=1;jettySize=auto;html=1;exitX=0.5;exitY=0;exitDx=0;exitDy=0;entryX=0;entryY=0.5;entryDx=0;entryDy=0;" edge="1" parent="1" source="miHSzvLpUOuJc-W2-yxP-18" target="miHSzvLpUOuJc-W2-yxP-22">
          <mxGeometry relative="1" as="geometry" />
        </mxCell>
        <mxCell id="miHSzvLpUOuJc-W2-yxP-29" style="edgeStyle=orthogonalEdgeStyle;rounded=0;orthogonalLoop=1;jettySize=auto;html=1;exitX=0.5;exitY=0;exitDx=0;exitDy=0;entryX=0;entryY=0.5;entryDx=0;entryDy=0;" edge="1" parent="1" source="miHSzvLpUOuJc-W2-yxP-18" target="miHSzvLpUOuJc-W2-yxP-21">
          <mxGeometry relative="1" as="geometry" />
        </mxCell>
        <mxCell id="miHSzvLpUOuJc-W2-yxP-30" style="edgeStyle=orthogonalEdgeStyle;rounded=0;orthogonalLoop=1;jettySize=auto;html=1;exitX=0.5;exitY=0;exitDx=0;exitDy=0;entryX=0;entryY=0.5;entryDx=0;entryDy=0;" edge="1" parent="1" source="miHSzvLpUOuJc-W2-yxP-18" target="miHSzvLpUOuJc-W2-yxP-20">
          <mxGeometry relative="1" as="geometry" />
        </mxCell>
        <mxCell id="miHSzvLpUOuJc-W2-yxP-31" style="edgeStyle=orthogonalEdgeStyle;rounded=0;orthogonalLoop=1;jettySize=auto;html=1;exitX=0.5;exitY=0;exitDx=0;exitDy=0;entryX=0;entryY=0.5;entryDx=0;entryDy=0;" edge="1" parent="1" source="miHSzvLpUOuJc-W2-yxP-18" target="miHSzvLpUOuJc-W2-yxP-19">
          <mxGeometry relative="1" as="geometry" />
        </mxCell>
        <mxCell id="miHSzvLpUOuJc-W2-yxP-49" style="edgeStyle=orthogonalEdgeStyle;rounded=0;orthogonalLoop=1;jettySize=auto;html=1;exitX=0.5;exitY=0;exitDx=0;exitDy=0;entryX=0;entryY=0.5;entryDx=0;entryDy=0;" edge="1" parent="1" source="miHSzvLpUOuJc-W2-yxP-18" target="miHSzvLpUOuJc-W2-yxP-24">
          <mxGeometry relative="1" as="geometry" />
        </mxCell>
        <mxCell id="miHSzvLpUOuJc-W2-yxP-50" style="edgeStyle=orthogonalEdgeStyle;rounded=0;orthogonalLoop=1;jettySize=auto;html=1;exitX=0.5;exitY=0;exitDx=0;exitDy=0;entryX=0;entryY=0.5;entryDx=0;entryDy=0;" edge="1" parent="1" source="miHSzvLpUOuJc-W2-yxP-18" target="miHSzvLpUOuJc-W2-yxP-48">
          <mxGeometry relative="1" as="geometry" />
        </mxCell>
        <mxCell id="miHSzvLpUOuJc-W2-yxP-18" value="User" style="whiteSpace=wrap;html=1;align=center;" vertex="1" parent="1">
          <mxGeometry x="10" y="-40" width="100" height="40" as="geometry" />
        </mxCell>
        <mxCell id="miHSzvLpUOuJc-W2-yxP-19" value="currency" style="ellipse;whiteSpace=wrap;html=1;align=center;" vertex="1" parent="1">
          <mxGeometry x="80" y="-140" width="100" height="40" as="geometry" />
        </mxCell>
        <mxCell id="miHSzvLpUOuJc-W2-yxP-20" value="is_staff" style="ellipse;whiteSpace=wrap;html=1;align=center;" vertex="1" parent="1">
          <mxGeometry x="80" y="-180" width="100" height="40" as="geometry" />
        </mxCell>
        <mxCell id="miHSzvLpUOuJc-W2-yxP-21" value="surname" style="ellipse;whiteSpace=wrap;html=1;align=center;" vertex="1" parent="1">
          <mxGeometry x="80" y="-220" width="100" height="40" as="geometry" />
        </mxCell>
        <mxCell id="miHSzvLpUOuJc-W2-yxP-22" value="forename" style="ellipse;whiteSpace=wrap;html=1;align=center;" vertex="1" parent="1">
          <mxGeometry x="80" y="-260" width="100" height="40" as="geometry" />
        </mxCell>
        <mxCell id="miHSzvLpUOuJc-W2-yxP-24" value="email" style="ellipse;whiteSpace=wrap;html=1;align=center;fontStyle=4;" vertex="1" parent="1">
          <mxGeometry x="80" y="-300" width="100" height="40" as="geometry" />
        </mxCell>
        <mxCell id="miHSzvLpUOuJc-W2-yxP-45" style="edgeStyle=orthogonalEdgeStyle;rounded=0;orthogonalLoop=1;jettySize=auto;html=1;exitX=0.5;exitY=0;exitDx=0;exitDy=0;entryX=0;entryY=0.5;entryDx=0;entryDy=0;" edge="1" parent="1" source="miHSzvLpUOuJc-W2-yxP-32" target="miHSzvLpUOuJc-W2-yxP-44">
          <mxGeometry relative="1" as="geometry" />
        </mxCell>
        <mxCell id="miHSzvLpUOuJc-W2-yxP-59" style="edgeStyle=orthogonalEdgeStyle;rounded=0;orthogonalLoop=1;jettySize=auto;html=1;exitX=0.5;exitY=0;exitDx=0;exitDy=0;entryX=0;entryY=0.5;entryDx=0;entryDy=0;" edge="1" parent="1" source="miHSzvLpUOuJc-W2-yxP-32" target="miHSzvLpUOuJc-W2-yxP-53">
          <mxGeometry relative="1" as="geometry" />
        </mxCell>
        <mxCell id="miHSzvLpUOuJc-W2-yxP-32" value="Balance" style="whiteSpace=wrap;html=1;align=center;" vertex="1" parent="1">
          <mxGeometry x="290" y="-40" width="100" height="40" as="geometry" />
        </mxCell>
        <mxCell id="miHSzvLpUOuJc-W2-yxP-33" value="Has" style="shape=rhombus;perimeter=rhombusPerimeter;whiteSpace=wrap;html=1;align=center;" vertex="1" parent="1">
          <mxGeometry x="140" y="-50" width="120" height="60" as="geometry" />
        </mxCell>
        <mxCell id="miHSzvLpUOuJc-W2-yxP-34" value="" style="endArrow=none;html=1;rounded=0;" edge="1" parent="1">
          <mxGeometry relative="1" as="geometry">
            <mxPoint x="110" y="-20" as="sourcePoint" />
            <mxPoint x="140" y="-20" as="targetPoint" />
          </mxGeometry>
        </mxCell>
        <mxCell id="miHSzvLpUOuJc-W2-yxP-36" value="" style="endArrow=none;html=1;rounded=0;entryX=0;entryY=0.5;entryDx=0;entryDy=0;exitX=1;exitY=0.5;exitDx=0;exitDy=0;" edge="1" parent="1" source="miHSzvLpUOuJc-W2-yxP-33" target="miHSzvLpUOuJc-W2-yxP-32">
          <mxGeometry relative="1" as="geometry">
            <mxPoint x="120" y="-10" as="sourcePoint" />
            <mxPoint x="150" y="-10" as="targetPoint" />
          </mxGeometry>
        </mxCell>
        <mxCell id="miHSzvLpUOuJc-W2-yxP-44" value="balance" style="ellipse;whiteSpace=wrap;html=1;align=center;" vertex="1" parent="1">
          <mxGeometry x="360" y="-100" width="100" height="40" as="geometry" />
        </mxCell>
        <mxCell id="miHSzvLpUOuJc-W2-yxP-98" style="edgeStyle=orthogonalEdgeStyle;rounded=0;orthogonalLoop=1;jettySize=auto;html=1;exitX=0.5;exitY=1;exitDx=0;exitDy=0;entryX=0;entryY=0.5;entryDx=0;entryDy=0;" edge="1" parent="1" source="miHSzvLpUOuJc-W2-yxP-47" target="miHSzvLpUOuJc-W2-yxP-57">
          <mxGeometry relative="1" as="geometry" />
        </mxCell>
        <mxCell id="miHSzvLpUOuJc-W2-yxP-99" style="edgeStyle=orthogonalEdgeStyle;rounded=0;orthogonalLoop=1;jettySize=auto;html=1;exitX=0.5;exitY=1;exitDx=0;exitDy=0;entryX=0;entryY=0.5;entryDx=0;entryDy=0;" edge="1" parent="1" source="miHSzvLpUOuJc-W2-yxP-47" target="miHSzvLpUOuJc-W2-yxP-56">
          <mxGeometry relative="1" as="geometry" />
        </mxCell>
        <mxCell id="miHSzvLpUOuJc-W2-yxP-100" style="edgeStyle=orthogonalEdgeStyle;rounded=0;orthogonalLoop=1;jettySize=auto;html=1;exitX=0.5;exitY=1;exitDx=0;exitDy=0;entryX=0;entryY=0.5;entryDx=0;entryDy=0;" edge="1" parent="1" source="miHSzvLpUOuJc-W2-yxP-47" target="miHSzvLpUOuJc-W2-yxP-62">
          <mxGeometry relative="1" as="geometry" />
        </mxCell>
        <mxCell id="miHSzvLpUOuJc-W2-yxP-103" style="edgeStyle=orthogonalEdgeStyle;rounded=0;orthogonalLoop=1;jettySize=auto;html=1;exitX=0.5;exitY=1;exitDx=0;exitDy=0;entryX=0;entryY=0.5;entryDx=0;entryDy=0;" edge="1" parent="1" source="miHSzvLpUOuJc-W2-yxP-47" target="miHSzvLpUOuJc-W2-yxP-55">
          <mxGeometry relative="1" as="geometry">
            <Array as="points">
              <mxPoint x="60" y="320" />
            </Array>
          </mxGeometry>
        </mxCell>
        <mxCell id="miHSzvLpUOuJc-W2-yxP-104" style="edgeStyle=orthogonalEdgeStyle;rounded=0;orthogonalLoop=1;jettySize=auto;html=1;exitX=0.5;exitY=1;exitDx=0;exitDy=0;entryX=0;entryY=0.5;entryDx=0;entryDy=0;" edge="1" parent="1" source="miHSzvLpUOuJc-W2-yxP-47" target="miHSzvLpUOuJc-W2-yxP-54">
          <mxGeometry relative="1" as="geometry" />
        </mxCell>
        <mxCell id="miHSzvLpUOuJc-W2-yxP-47" value="Transaction" style="whiteSpace=wrap;html=1;align=center;" vertex="1" parent="1">
          <mxGeometry x="10" y="120" width="100" height="40" as="geometry" />
        </mxCell>
        <mxCell id="miHSzvLpUOuJc-W2-yxP-48" value="balance" style="ellipse;whiteSpace=wrap;html=1;align=center;" vertex="1" parent="1">
          <mxGeometry x="80" y="-100" width="100" height="40" as="geometry" />
        </mxCell>
        <mxCell id="miHSzvLpUOuJc-W2-yxP-51" style="edgeStyle=orthogonalEdgeStyle;rounded=0;orthogonalLoop=1;jettySize=auto;html=1;entryX=0;entryY=0.5;entryDx=0;entryDy=0;" edge="1" parent="1">
          <mxGeometry relative="1" as="geometry">
            <mxPoint x="340" y="-40" as="sourcePoint" />
            <mxPoint x="360.00000000000125" y="-120" as="targetPoint" />
            <Array as="points">
              <mxPoint x="340" y="-120" />
            </Array>
          </mxGeometry>
        </mxCell>
        <mxCell id="miHSzvLpUOuJc-W2-yxP-53" value="user" style="ellipse;whiteSpace=wrap;html=1;align=center;fontStyle=4;" vertex="1" parent="1">
          <mxGeometry x="360" y="-180" width="100" height="40" as="geometry" />
        </mxCell>
        <mxCell id="miHSzvLpUOuJc-W2-yxP-54" value="datetime" style="ellipse;whiteSpace=wrap;html=1;align=center;fontStyle=4;" vertex="1" parent="1">
          <mxGeometry x="80" y="340" width="100" height="40" as="geometry" />
        </mxCell>
        <mxCell id="miHSzvLpUOuJc-W2-yxP-55" value="sender" style="ellipse;whiteSpace=wrap;html=1;align=center;" vertex="1" parent="1">
          <mxGeometry x="75" y="300" width="100" height="40" as="geometry" />
        </mxCell>
        <mxCell id="miHSzvLpUOuJc-W2-yxP-56" value="recipient" style="ellipse;whiteSpace=wrap;html=1;align=center;" vertex="1" parent="1">
          <mxGeometry x="80" y="220" width="100" height="40" as="geometry" />
        </mxCell>
        <mxCell id="miHSzvLpUOuJc-W2-yxP-57" value="amount" style="ellipse;whiteSpace=wrap;html=1;align=center;" vertex="1" parent="1">
          <mxGeometry x="80" y="180" width="100" height="40" as="geometry" />
        </mxCell>
        <mxCell id="miHSzvLpUOuJc-W2-yxP-58" value="currency" style="ellipse;whiteSpace=wrap;html=1;align=center;dashed=1;" vertex="1" parent="1">
          <mxGeometry x="360" y="-140" width="100" height="40" as="geometry" />
        </mxCell>
        <mxCell id="miHSzvLpUOuJc-W2-yxP-62" value="sender_currency" style="ellipse;whiteSpace=wrap;html=1;align=center;dashed=1;" vertex="1" parent="1">
          <mxGeometry x="80" y="260" width="100" height="40" as="geometry" />
        </mxCell>
        <mxCell id="miHSzvLpUOuJc-W2-yxP-67" value="Transacts" style="shape=rhombus;perimeter=rhombusPerimeter;whiteSpace=wrap;html=1;align=center;" vertex="1" parent="1">
          <mxGeometry y="30" width="120" height="60" as="geometry" />
        </mxCell>
        <mxCell id="miHSzvLpUOuJc-W2-yxP-69" value="" style="endArrow=none;html=1;rounded=0;exitX=0.5;exitY=1;exitDx=0;exitDy=0;entryX=0.5;entryY=0;entryDx=0;entryDy=0;" edge="1" parent="1" source="miHSzvLpUOuJc-W2-yxP-18" target="miHSzvLpUOuJc-W2-yxP-67">
          <mxGeometry relative="1" as="geometry">
            <mxPoint x="-30" y="100" as="sourcePoint" />
            <mxPoint x="130" y="100" as="targetPoint" />
          </mxGeometry>
        </mxCell>
        <mxCell id="miHSzvLpUOuJc-W2-yxP-70" value="Requests" style="shape=rhombus;perimeter=rhombusPerimeter;whiteSpace=wrap;html=1;align=center;" vertex="1" parent="1">
          <mxGeometry x="-140" y="-50" width="120" height="60" as="geometry" />
        </mxCell>
        <mxCell id="miHSzvLpUOuJc-W2-yxP-71" value="" style="endArrow=none;html=1;rounded=0;" edge="1" parent="1">
          <mxGeometry relative="1" as="geometry">
            <mxPoint x="-170" y="-20" as="sourcePoint" />
            <mxPoint x="-140" y="-20" as="targetPoint" />
          </mxGeometry>
        </mxCell>
        <mxCell id="miHSzvLpUOuJc-W2-yxP-72" value="" style="endArrow=none;html=1;rounded=0;entryX=0;entryY=0.5;entryDx=0;entryDy=0;exitX=1;exitY=0.5;exitDx=0;exitDy=0;" edge="1" parent="1" source="miHSzvLpUOuJc-W2-yxP-70">
          <mxGeometry relative="1" as="geometry">
            <mxPoint x="-160" y="-10" as="sourcePoint" />
            <mxPoint x="10" y="-20" as="targetPoint" />
          </mxGeometry>
        </mxCell>
        <mxCell id="miHSzvLpUOuJc-W2-yxP-73" style="edgeStyle=orthogonalEdgeStyle;rounded=0;orthogonalLoop=1;jettySize=auto;html=1;exitX=0.5;exitY=0;exitDx=0;exitDy=0;entryX=0;entryY=0.5;entryDx=0;entryDy=0;" edge="1" parent="1" source="miHSzvLpUOuJc-W2-yxP-78" target="miHSzvLpUOuJc-W2-yxP-82">
          <mxGeometry relative="1" as="geometry" />
        </mxCell>
        <mxCell id="miHSzvLpUOuJc-W2-yxP-74" style="edgeStyle=orthogonalEdgeStyle;rounded=0;orthogonalLoop=1;jettySize=auto;html=1;exitX=0.5;exitY=0;exitDx=0;exitDy=0;entryX=0;entryY=0.5;entryDx=0;entryDy=0;" edge="1" parent="1" source="miHSzvLpUOuJc-W2-yxP-78" target="miHSzvLpUOuJc-W2-yxP-81">
          <mxGeometry relative="1" as="geometry" />
        </mxCell>
        <mxCell id="miHSzvLpUOuJc-W2-yxP-75" style="edgeStyle=orthogonalEdgeStyle;rounded=0;orthogonalLoop=1;jettySize=auto;html=1;exitX=0.5;exitY=0;exitDx=0;exitDy=0;entryX=0;entryY=0.5;entryDx=0;entryDy=0;" edge="1" parent="1" source="miHSzvLpUOuJc-W2-yxP-78" target="miHSzvLpUOuJc-W2-yxP-83">
          <mxGeometry relative="1" as="geometry" />
        </mxCell>
        <mxCell id="miHSzvLpUOuJc-W2-yxP-76" style="edgeStyle=orthogonalEdgeStyle;rounded=0;orthogonalLoop=1;jettySize=auto;html=1;exitX=0.5;exitY=0;exitDx=0;exitDy=0;entryX=0;entryY=0.5;entryDx=0;entryDy=0;" edge="1" parent="1" source="miHSzvLpUOuJc-W2-yxP-78" target="miHSzvLpUOuJc-W2-yxP-80">
          <mxGeometry relative="1" as="geometry" />
        </mxCell>
        <mxCell id="miHSzvLpUOuJc-W2-yxP-77" style="edgeStyle=orthogonalEdgeStyle;rounded=0;orthogonalLoop=1;jettySize=auto;html=1;exitX=0.5;exitY=0;exitDx=0;exitDy=0;entryX=0;entryY=0.5;entryDx=0;entryDy=0;" edge="1" parent="1" source="miHSzvLpUOuJc-W2-yxP-78" target="miHSzvLpUOuJc-W2-yxP-79">
          <mxGeometry relative="1" as="geometry" />
        </mxCell>
        <mxCell id="miHSzvLpUOuJc-W2-yxP-78" value="Request" style="whiteSpace=wrap;html=1;align=center;" vertex="1" parent="1">
          <mxGeometry x="-270" y="-40" width="100" height="40" as="geometry" />
        </mxCell>
        <mxCell id="miHSzvLpUOuJc-W2-yxP-79" value="datetime" style="ellipse;whiteSpace=wrap;html=1;align=center;fontStyle=4;" vertex="1" parent="1">
          <mxGeometry x="-190" y="-300" width="100" height="40" as="geometry" />
        </mxCell>
        <mxCell id="miHSzvLpUOuJc-W2-yxP-80" value="requester" style="ellipse;whiteSpace=wrap;html=1;align=center;" vertex="1" parent="1">
          <mxGeometry x="-190" y="-260" width="100" height="40" as="geometry" />
        </mxCell>
        <mxCell id="miHSzvLpUOuJc-W2-yxP-81" value="recipient" style="ellipse;whiteSpace=wrap;html=1;align=center;" vertex="1" parent="1">
          <mxGeometry x="-190" y="-180" width="100" height="40" as="geometry" />
        </mxCell>
        <mxCell id="miHSzvLpUOuJc-W2-yxP-82" value="amount" style="ellipse;whiteSpace=wrap;html=1;align=center;" vertex="1" parent="1">
          <mxGeometry x="-190" y="-140" width="100" height="40" as="geometry" />
        </mxCell>
        <mxCell id="miHSzvLpUOuJc-W2-yxP-83" value="sender_currency" style="ellipse;whiteSpace=wrap;html=1;align=center;dashed=1;" vertex="1" parent="1">
          <mxGeometry x="-190" y="-220" width="100" height="40" as="geometry" />
        </mxCell>
        <mxCell id="miHSzvLpUOuJc-W2-yxP-84" value="status" style="ellipse;whiteSpace=wrap;html=1;align=center;" vertex="1" parent="1">
          <mxGeometry x="-190" y="-100" width="100" height="40" as="geometry" />
        </mxCell>
        <mxCell id="miHSzvLpUOuJc-W2-yxP-85" value="1" style="text;html=1;align=center;verticalAlign=middle;resizable=0;points=[];autosize=1;strokeColor=none;fillColor=none;" vertex="1" parent="1">
          <mxGeometry x="110" y="-40" width="30" height="30" as="geometry" />
        </mxCell>
        <mxCell id="miHSzvLpUOuJc-W2-yxP-86" value="1" style="text;html=1;align=center;verticalAlign=middle;resizable=0;points=[];autosize=1;strokeColor=none;fillColor=none;" vertex="1" parent="1">
          <mxGeometry x="260" y="-40" width="30" height="30" as="geometry" />
        </mxCell>
        <mxCell id="miHSzvLpUOuJc-W2-yxP-87" value="M" style="text;html=1;align=center;verticalAlign=middle;resizable=0;points=[];autosize=1;strokeColor=none;fillColor=none;" vertex="1" parent="1">
          <mxGeometry x="-170" y="-40" width="30" height="30" as="geometry" />
        </mxCell>
        <mxCell id="miHSzvLpUOuJc-W2-yxP-88" value="2" style="text;html=1;align=center;verticalAlign=middle;resizable=0;points=[];autosize=1;strokeColor=none;fillColor=none;" vertex="1" parent="1">
          <mxGeometry x="-20" y="-40" width="30" height="30" as="geometry" />
        </mxCell>
        <mxCell id="miHSzvLpUOuJc-W2-yxP-89" value="M" style="text;html=1;align=center;verticalAlign=middle;resizable=0;points=[];autosize=1;strokeColor=none;fillColor=none;" vertex="1" parent="1">
          <mxGeometry x="50" y="90" width="30" height="30" as="geometry" />
        </mxCell>
        <mxCell id="miHSzvLpUOuJc-W2-yxP-90" value="2" style="text;html=1;align=center;verticalAlign=middle;resizable=0;points=[];autosize=1;strokeColor=none;fillColor=none;" vertex="1" parent="1">
          <mxGeometry x="50" width="30" height="30" as="geometry" />
        </mxCell>
        <mxCell id="miHSzvLpUOuJc-W2-yxP-92" value="" style="endArrow=none;html=1;rounded=0;entryX=0.5;entryY=0;entryDx=0;entryDy=0;exitX=0.5;exitY=1;exitDx=0;exitDy=0;" edge="1" parent="1" source="miHSzvLpUOuJc-W2-yxP-67" target="miHSzvLpUOuJc-W2-yxP-47">
          <mxGeometry relative="1" as="geometry">
            <mxPoint x="100" y="20" as="sourcePoint" />
            <mxPoint x="70" y="40" as="targetPoint" />
          </mxGeometry>
        </mxCell>
      </root>
    </mxGraphModel>
  </diagram>
</mxfile>
